<svg xmlns="http://www.w3.org/2000/svg" width="40" height="40" viewBox="0 0 40 40">
  <path d="M20 2C10.059 2 2 10.059 2 20s8.059 18 18 18 18-8.059 18-18S29.941 2 20 2zm0 32c-7.732 0-14-6.268-14-14S12.268 4 20 4s14 6.268 14 14-6.268 14-14 14z" fill="#1e40af"/>
  <path d="M20 8c-3.314 0-6 2.686-6 6 0 2.476 1.51 4.597 3.656 5.484-.34 2.646-1.01 4.227-2.010 4.227-.552 0-1 .448-1 1s.448 1 1 1c2.629 0 3.878-2.409 4.354-5.5C21.135 20.084 22 18.881 22 17.5c0-.552-.448-1-1-1s-1 .448-1 1c0 .551-.449 1-1 1-.552 0-1-.449-1-1 0-1.654 1.346-3 3-3 .552 0 1-.448 1-1s-.448-1-1-1z" fill="#1e40af"/>
</svg>